<svg xmlns="http://www.w3.org/2000/svg" aria-hidden="true" style="position:absolute;width:0;height:0;overflow:hidden"><defs><symbol id="icon-x" viewBox="0 0 32 32"><path stroke-linecap="round" stroke-linejoin="round" stroke-width="2.4" d="M24 8 8 24M8 8l16 16"/></symbol><symbol id="icon-chevron-down" viewBox="0 0 32 32"><path stroke-linecap="round" stroke-linejoin="round" stroke-width="3.2" d="m8 12 8 8 8-8"/></symbol><symbol id="icon-chevron-up" viewBox="0 0 32 32"><path stroke-linecap="round" stroke-linejoin="round" stroke-width="3.2" d="m24 20-8-8-8 8"/></symbol><symbol id="icon-Vector" viewBox="0 0 36 32"><path stroke-linecap="round" stroke-linejoin="round" stroke-width="3" d="M31.26 4.916c-1.493-1.494-3.556-2.418-5.835-2.418s-4.342.924-5.835 2.418L18 6.506l-1.59-1.59A8.253 8.253 0 0 0 4.741 16.587v-.001l13.26 13.26 13.26-13.26c1.494-1.493 2.418-3.556 2.418-5.835s-.924-4.342-2.418-5.835z"/></symbol><symbol id="icon-Vector-1" viewBox="0 0 36 32"><path fill="#3470ff" stroke="#3470ff" stroke-linecap="round" stroke-linejoin="round" stroke-width="2" d="M31.26 4.916c-1.493-1.494-3.556-2.418-5.835-2.418s-4.342.924-5.835 2.418L18 6.506l-1.59-1.59A8.253 8.253 0 0 0 4.741 16.587v-.001l13.26 13.26 13.26-13.26c1.494-1.493 2.418-3.556 2.418-5.835s-.924-4.342-2.418-5.835h0z" style="fill:var(--color1, #3470ff);stroke:var(--color1, #3470ff)"/></symbol></defs></svg>